<svg width="286" height="65" viewBox="0 0 286 65" fill="none" xmlns="http://www.w3.org/2000/svg">
<mask id="mask0_1_2176" style="mask-type:luminance" maskUnits="userSpaceOnUse" x="-14" y="-17" width="318" height="105">
<path d="M303.093 -16.328H-13.502V87.3035H303.093V-16.328Z" fill="white"/>
</mask>
<g mask="url(#mask0_1_2176)">
<path d="M73.5771 63.1334C73.1325 62.7637 72.778 62.2962 72.5409 61.7666C72.3037 61.2371 72.1902 60.6598 72.2091 60.079C72.1889 59.2184 72.3796 58.3659 72.7643 57.5974C73.1345 56.8864 73.8497 56.1338 74.9098 55.3397L89.4608 44.2499C89.7222 44.0632 89.953 43.8365 90.1449 43.5779C90.2841 43.3691 90.3555 43.1219 90.3493 42.8703C90.3493 42.2985 89.9177 42.0126 89.0545 42.0126H75.5105C74.863 42.0308 74.2249 41.8535 73.678 41.5035C73.4408 41.358 73.2459 41.1519 73.1129 40.9061C72.98 40.6603 72.9137 40.3835 72.9208 40.1036C72.909 39.8197 72.971 39.5376 73.1008 39.2853C73.2305 39.033 73.4234 38.8193 73.6604 38.6655C74.2118 38.311 74.8569 38.1336 75.5105 38.1564H90.2029C91.8065 38.1564 93.0584 38.5238 93.9587 39.2586C94.8589 39.9933 95.309 41.0318 95.309 42.374C95.3428 43.2563 95.1516 44.1327 94.7537 44.9193C94.3836 45.598 93.6684 46.3319 92.6083 47.121L78.0648 58.2057C77.7999 58.396 77.568 58.6291 77.3783 58.8955C77.2391 59.1249 77.169 59.3902 77.1764 59.6591C77.1764 60.1834 77.7544 60.443 78.9154 60.443H93.0122C93.6595 60.4256 94.2974 60.6028 94.8446 60.9521C95.082 61.0974 95.2771 61.3034 95.4101 61.5493C95.543 61.7951 95.6092 62.072 95.6018 62.352C95.6135 62.6355 95.5513 62.9172 95.4216 63.1691C95.2919 63.4209 95.099 63.6341 94.8623 63.7875C94.3107 64.1417 93.6657 64.3192 93.0122 64.2966H77.3228C75.7461 64.2966 74.5 63.9114 73.5847 63.141" fill="white"/>
<path d="M105.208 62.9654C103.189 61.9005 101.533 60.2497 100.453 58.2261C99.3626 56.2051 98.8174 53.8728 98.8174 51.2291C98.8174 48.5854 99.3601 46.253 100.445 44.2321C101.526 42.2091 103.182 40.5585 105.201 39.4928C107.286 38.3609 109.771 37.795 112.657 37.795C115.542 37.795 118.028 38.3609 120.113 39.4928C122.131 40.5585 123.788 42.2091 124.868 44.2321C125.955 46.2683 126.498 48.6007 126.498 51.2291C126.498 53.8575 125.955 56.1899 124.868 58.2261C123.788 60.2497 122.132 61.9005 120.113 62.9654C118.028 64.0989 115.542 64.6648 112.657 64.6631C109.771 64.6614 107.286 64.0955 105.201 62.9654M119.207 58.1879C120.761 56.4911 121.539 54.1715 121.539 51.2291C121.539 48.2867 120.734 45.9603 119.123 44.2499C117.505 42.553 115.229 41.7046 112.296 41.7046C109.603 41.7046 107.513 42.5692 106.024 44.2983C104.534 46.0274 103.787 48.3351 103.782 51.2215C103.782 54.1553 104.56 56.4749 106.114 58.1803C107.669 59.8856 109.852 60.7383 112.664 60.7383C115.479 60.7383 117.663 59.8856 119.214 58.1803" fill="white"/>
<path d="M130.946 64.0294C130.722 63.822 130.547 63.5673 130.431 63.2835C130.316 62.9998 130.265 62.6939 130.28 62.3876V49.3252C130.28 45.7194 131.304 42.8958 133.352 40.8545C135.4 38.8132 138.249 37.795 141.901 37.8001C144.293 37.8001 146.366 38.26 148.117 39.1797C149.831 40.0635 151.233 41.4578 152.133 43.1732C153.057 44.9142 153.52 46.9666 153.521 49.3303V62.3927C153.537 62.699 153.485 63.0049 153.37 63.2886C153.255 63.5724 153.079 63.8271 152.855 64.0344C152.339 64.424 151.711 64.633 151.066 64.6298C150.422 64.6265 149.796 64.4113 149.283 64.0166C149.058 63.8133 148.88 63.5623 148.762 63.2817C148.644 63.001 148.588 62.6975 148.599 62.3927V56.3095H135.202V62.3927C135.213 62.6975 135.158 63.001 135.04 63.2817C134.921 63.5623 134.743 63.8133 134.518 64.0166C134.006 64.4113 133.38 64.6265 132.735 64.6298C132.09 64.633 131.462 64.424 130.946 64.0344M148.599 52.4661V49.2132C148.599 46.7256 148.037 44.8531 146.913 43.5958C145.789 42.3384 144.118 41.708 141.901 41.7046C137.435 41.7046 135.202 44.2049 135.202 49.2056V52.4534L148.599 52.4661Z" fill="white"/>
<path d="M164.475 62.8535C163.339 61.647 162.34 59.6506 161.476 56.8644L156.333 40.3684C156.233 40.068 156.183 39.7534 156.184 39.4368C156.184 38.3423 156.948 37.7951 158.478 37.7951C159.235 37.7951 159.828 37.9427 160.245 38.243C160.698 38.6132 161.016 39.1243 161.151 39.6964L166.257 56.4953C166.73 58.0038 167.16 59.0975 167.547 59.7762C167.934 60.455 168.34 60.7901 168.766 60.7816C169.185 60.7816 169.594 60.4456 169.988 59.7762C170.381 59.1068 170.813 58.0098 171.282 56.4902L176.389 39.6913C176.524 39.1189 176.843 38.6078 177.297 38.238C177.704 37.9376 178.289 37.79 179.064 37.79C180.594 37.79 181.358 38.3372 181.358 39.4317C181.36 39.7482 181.31 40.0628 181.212 40.3633L176.053 56.8644C175.19 59.6523 174.19 61.6487 173.054 62.8535C172.493 63.4263 171.825 63.8812 171.089 64.1916C170.352 64.5021 169.562 64.6619 168.763 64.6619C167.965 64.6619 167.175 64.5021 166.438 64.1916C165.702 63.8812 165.033 63.4263 164.473 62.8535" fill="white"/>
<path d="M187.411 62.7974C186.375 61.8014 185.856 60.4083 185.856 58.6181V43.69C185.856 41.949 186.356 40.5915 187.356 39.6175C188.355 38.6435 189.743 38.1582 191.518 38.1616H203.027C203.768 38.1616 204.335 38.3313 204.729 38.6706C204.929 38.8494 205.087 39.0717 205.189 39.3209C205.292 39.57 205.337 39.8394 205.322 40.1087C205.335 40.3738 205.286 40.6383 205.18 40.8812C205.074 41.1242 204.913 41.339 204.711 41.5086C204.226 41.8714 203.63 42.0515 203.027 42.0177H192.376C192.158 42.0069 191.941 42.0446 191.739 42.1282C191.538 42.2118 191.357 42.3392 191.21 42.5013C190.908 42.8808 190.757 43.3597 190.786 43.8452V49.0325H200.221C200.963 49.0325 201.531 49.2022 201.924 49.5416C202.125 49.7201 202.282 49.942 202.385 50.1906C202.487 50.4393 202.533 50.7082 202.518 50.9771C202.53 51.2423 202.482 51.5068 202.376 51.7498C202.27 51.9927 202.109 52.2075 201.907 52.377C201.421 52.7398 200.824 52.9199 200.221 52.8861H190.786V58.6334C190.757 59.1188 190.908 59.5978 191.21 59.9773C191.357 60.1394 191.538 60.2668 191.739 60.3504C191.941 60.434 192.158 60.4717 192.376 60.4609H203.848C204.586 60.4609 205.154 60.6306 205.551 60.9699C205.751 61.1489 205.908 61.3714 206.011 61.6205C206.113 61.8696 206.158 62.1389 206.142 62.408C206.155 62.6729 206.107 62.9373 206.001 63.1802C205.896 63.4231 205.736 63.638 205.534 63.8079C205.047 64.1697 204.451 64.3497 203.848 64.317H191.785C189.909 64.317 188.454 63.8198 187.419 62.8255" fill="white"/>
<path d="M210.657 43.69C210.657 41.949 211.157 40.5915 212.157 39.6175C213.156 38.6435 214.543 38.1582 216.319 38.1616H222.906C226.581 38.1616 229.358 38.8836 231.236 40.3276C233.114 41.7716 234.05 43.9275 234.045 46.7952C234.045 49.4576 233.262 51.5354 231.695 53.0286C230.128 54.5219 228.025 55.2676 225.385 55.2659L231.011 60.9012C231.219 61.0967 231.386 61.333 231.5 61.5956C231.615 61.8581 231.675 62.1415 231.677 62.4284C231.673 62.7319 231.601 63.0305 231.467 63.302C231.332 63.5735 231.138 63.8108 230.9 63.9963C230.454 64.3815 229.894 64.6046 229.307 64.6301C228.592 64.6301 227.938 64.3068 227.346 63.6603L219.353 55.4136H215.579V62.4233C215.594 62.7334 215.538 63.0427 215.416 63.3277C215.294 63.6127 215.109 63.8657 214.875 64.0676C214.376 64.4741 213.749 64.6856 213.108 64.6632C212.466 64.694 211.836 64.4815 211.341 64.0676C211.117 63.8597 210.941 63.6046 210.826 63.3204C210.711 63.0362 210.659 62.7299 210.675 62.4233L210.657 43.69ZM222.747 51.5651C224.376 51.5651 225.647 51.403 226.559 51.0789C227.371 50.8366 228.064 50.2975 228.502 49.567C228.886 48.8883 229.077 47.9618 229.075 46.7876C229.075 45.0907 228.564 43.8715 227.541 43.13C226.517 42.3885 224.919 42.016 222.745 42.0126H217.169C216.952 42.0018 216.734 42.0395 216.533 42.1231C216.331 42.2067 216.15 42.3341 216.003 42.4962C215.702 42.8757 215.55 43.3546 215.579 43.8401V51.5651H222.747Z" fill="white"/>
<path d="M244.26 63.4516C242.203 62.6836 240.325 61.4956 238.745 59.962C238.571 59.7994 238.432 59.6026 238.336 59.3837C238.241 59.1648 238.191 58.9285 238.189 58.6893C238.202 58.3913 238.274 58.0988 238.401 57.8294C238.528 57.56 238.708 57.3193 238.929 57.1214C239.094 56.939 239.293 56.7921 239.516 56.6897C239.738 56.5873 239.979 56.5316 240.224 56.5258C240.719 56.5258 241.307 56.8118 241.991 57.3836C243.191 58.477 244.593 59.3203 246.117 59.8653C247.7 60.4489 249.372 60.7462 251.057 60.7434C252.684 60.7434 253.955 60.4634 254.868 59.9034C255.291 59.6737 255.642 59.331 255.884 58.9129C256.126 58.4949 256.249 58.0177 256.239 57.5338C256.239 56.4648 255.745 55.6002 254.757 54.9401C253.769 54.28 252.093 53.6861 249.727 53.1584C246.001 52.3388 243.293 51.2571 241.602 49.9132C239.911 48.5693 239.07 46.8402 239.078 44.7259C239.071 43.4014 239.545 42.1201 240.411 41.1243C241.299 40.0688 242.538 39.2476 244.129 38.6604C245.884 38.0501 247.731 37.7538 249.588 37.7849C251.685 37.7476 253.768 38.1345 255.714 38.9226C257.501 39.6811 258.863 40.7442 259.8 42.1119C260.079 42.5075 260.245 42.972 260.282 43.4558C260.262 43.7773 260.168 44.0898 260.008 44.3685C259.848 44.6473 259.625 44.8846 259.359 45.0618C259.032 45.2873 258.644 45.4047 258.248 45.3978C257.886 45.4056 257.527 45.3287 257.2 45.1733C256.872 45.0179 256.585 44.7881 256.36 44.5019C255.586 43.5897 254.602 42.8841 253.493 42.4478C252.252 41.9426 250.926 41.6892 249.588 41.7021C247.836 41.7021 246.473 41.9693 245.499 42.5038C244.525 43.0409 244.035 43.7765 244.035 44.7259C244.035 45.6753 244.512 46.449 245.461 47.0574C246.41 47.6657 248.058 48.246 250.401 48.7932C252.992 49.4143 255.077 50.1168 256.655 50.9007C258.234 51.6847 259.387 52.6112 260.116 53.6802C260.863 54.8185 261.245 56.1614 261.209 57.5261C261.227 58.8849 260.782 60.2087 259.947 61.2754C259.015 62.4252 257.785 63.2907 256.393 63.7748C254.684 64.3911 252.879 64.6886 251.065 64.653C248.739 64.6705 246.429 64.2599 244.25 63.4414" fill="white"/>
<path d="M267.276 62.7974C266.238 61.8014 265.72 60.4083 265.722 58.6181V43.69C265.722 41.949 266.221 40.5915 267.221 39.6175C268.22 38.6435 269.608 38.1582 271.383 38.1616H282.893C283.631 38.1616 284.198 38.3313 284.594 38.6706C284.794 38.8494 284.952 39.0717 285.055 39.3209C285.157 39.57 285.203 39.8394 285.187 40.1087C285.2 40.3739 285.152 40.6386 285.046 40.8816C284.94 41.1246 284.779 41.3394 284.576 41.5086C284.091 41.8714 283.496 42.0515 282.893 42.0177H272.234C272.016 42.0065 271.799 42.0441 271.598 42.1277C271.397 42.2113 271.217 42.3389 271.07 42.5013C270.767 42.8799 270.614 43.3592 270.644 43.8452V49.0325H280.081C280.82 49.0325 281.387 49.2022 281.782 49.5416C281.982 49.7201 282.139 49.942 282.242 50.1906C282.345 50.4393 282.39 50.7082 282.375 50.9771C282.388 51.2423 282.34 51.5068 282.234 51.7498C282.128 51.9927 281.967 52.2075 281.764 52.377C281.279 52.7398 280.684 52.9199 280.081 52.8861H270.644V58.6334C270.614 59.1193 270.767 59.5987 271.07 59.9773C271.217 60.1396 271.397 60.2672 271.598 60.3508C271.799 60.4345 272.016 60.472 272.234 60.4609H283.708C284.447 60.4609 285.014 60.6306 285.409 60.9699C285.61 61.1487 285.767 61.371 285.87 61.6202C285.973 61.8693 286.018 62.1387 286.002 62.408C286.015 62.6731 285.966 62.9376 285.86 63.1805C285.754 63.4235 285.594 63.6383 285.391 63.8079C284.906 64.1698 284.311 64.3498 283.708 64.317H271.643C269.767 64.317 268.311 63.8198 267.276 62.8255" fill="white"/>
</g>
<mask id="mask1_1_2176" style="mask-type:luminance" maskUnits="userSpaceOnUse" x="-1" y="0" width="38" height="38">
<path d="M20.3349 1.65956L10.789 11.3164L1.24313 20.9732C0.579288 21.6451 0.102522 22.4814 -0.13926 23.398C-0.381042 24.3146 -0.379321 25.2793 -0.13427 26.195C0.110781 27.1107 0.590528 27.9452 1.25676 28.6147C1.92299 29.2842 2.75223 29.7651 3.66115 30.009L16.7281 33.5164L29.795 37.0238C30.7028 37.2673 31.6581 37.2657 32.5651 37.0192C33.472 36.7727 34.2988 36.2901 34.9623 35.6196C35.6259 34.9492 36.103 34.1145 36.3456 33.1995C36.5883 32.2844 36.588 31.321 36.3449 30.4061L32.8239 17.2393L29.3028 4.06487C28.9977 2.91223 28.322 1.89429 27.3814 1.17064C26.4409 0.446986 25.2888 0.058543 24.1058 0.0662125C23.4034 0.065196 22.7078 0.205604 22.0598 0.479209C21.4119 0.752813 20.8246 1.15411 20.3324 1.65956" fill="white"/>
</mask>
<g mask="url(#mask1_1_2176)">
<path d="M27.6436 -17.0007L-18.002 9.57465L8.09911 55.1637L53.7446 28.5883L27.6436 -17.0007Z" fill="url(#paint0_linear_1_2176)"/>
</g>
<mask id="mask2_1_2176" style="mask-type:luminance" maskUnits="userSpaceOnUse" x="36" y="43" width="12" height="11">
<path d="M42.1082 43.059L36.7646 48.4476L42.1082 53.8361L47.4518 48.4476L42.1082 43.059Z" fill="white"/>
</mask>
<g mask="url(#mask2_1_2176)">
<path d="M47.4485 43.0612H36.7617V53.838H47.4485V43.0612Z" fill="url(#paint1_linear_1_2176)"/>
</g>
<mask id="mask3_1_2176" style="mask-type:luminance" maskUnits="userSpaceOnUse" x="-14" y="-17" width="318" height="105">
<path d="M303.093 -16.328H-13.502V87.3035H303.093V-16.328Z" fill="white"/>
</mask>
<g mask="url(#mask3_1_2176)">
<path d="M42.0897 53.822L36.7461 59.2106L42.0897 64.5992L47.4333 59.2106L42.0897 53.822Z" fill="#5793F9"/>
</g>
<mask id="mask4_1_2176" style="mask-type:luminance" maskUnits="userSpaceOnUse" x="36" y="53" width="12" height="12">
<path d="M42.0994 53.8304L36.7559 59.2189L42.0994 64.6075L47.443 59.2189L42.0994 53.8304Z" fill="white"/>
</mask>
<g mask="url(#mask4_1_2176)">
<path d="M47.4407 53.8279H36.7539V64.6047H47.4407V53.8279Z" fill="url(#paint2_linear_1_2176)"/>
</g>
<mask id="mask5_1_2176" style="mask-type:luminance" maskUnits="userSpaceOnUse" x="47" y="53" width="12" height="12">
<path d="M52.7782 53.8197L47.4346 59.2083L52.7782 64.5969L58.1217 59.2083L52.7782 53.8197Z" fill="white"/>
</mask>
<g mask="url(#mask5_1_2176)">
<path d="M58.1194 53.8203H47.4326V64.597H58.1194V53.8203Z" fill="url(#paint3_linear_1_2176)"/>
</g>
<mask id="mask6_1_2176" style="mask-type:luminance" maskUnits="userSpaceOnUse" x="17" y="23" width="47" height="42">
<path d="M17.7207 30.4646L21.2216 43.6365L24.7199 56.8084C24.9582 57.7175 25.43 58.5472 26.0879 59.2137L31.4263 64.6122L36.7696 59.2239L31.4263 53.8355L42.113 43.0587L47.4564 48.4471L52.7998 43.0587L58.128 48.4318L63.4689 43.0409L58.128 37.6525L52.7821 43.0409L47.4564 37.6703L52.7897 32.287C52.1288 31.6236 51.3061 31.1478 50.4045 30.9075L37.3426 27.3772L24.2807 23.8494C23.3716 23.5982 22.4127 23.5941 21.5015 23.8375C20.5903 24.0809 19.7592 24.5632 19.0926 25.2354C18.4261 25.9075 17.9478 26.7456 17.7064 27.6645C17.465 28.5834 17.4691 29.5504 17.7182 30.4672" fill="white"/>
</mask>
<g mask="url(#mask6_1_2176)">
<path d="M51.7922 3.27538L-0.806641 33.899L28.4507 85.001L81.0495 54.3774L51.7922 3.27538Z" fill="url(#paint4_linear_1_2176)"/>
</g>
<mask id="mask7_1_2176" style="mask-type:luminance" maskUnits="userSpaceOnUse" x="-14" y="-17" width="318" height="105">
<path d="M303.093 -16.328H-13.502V87.3035H303.093V-16.328Z" fill="white"/>
</mask>
<g mask="url(#mask7_1_2176)">
<path d="M31.4061 43.107L26.0625 48.4955L31.4061 53.8841L36.7497 48.4955L31.4061 43.107Z" fill="#88FCFF"/>
<g opacity="0.33">
<mask id="mask8_1_2176" style="mask-type:luminance" maskUnits="userSpaceOnUse" x="17" y="23" width="20" height="15">
<path d="M36.5347 23.6585H17.5312V37.2122H36.5347V23.6585Z" fill="white"/>
</mask>
<g mask="url(#mask8_1_2176)">
<path d="M36.3432 30.3984L35.3967 26.8528L24.2909 23.8494C23.3823 23.6031 22.4254 23.6026 21.5166 23.8478C20.6077 24.0931 19.7789 24.5754 19.1137 25.2463C18.4484 25.9171 17.9701 26.7529 17.7269 27.6694C17.4837 28.5859 17.4843 29.5509 17.7284 30.4671L18.6775 34.0305L29.8009 37.0187C30.7086 37.2613 31.6636 37.2591 32.5701 37.0123C33.4767 36.7656 34.3031 36.2829 34.9664 35.6127C35.6298 34.9424 36.1068 34.1082 36.3498 33.1935C36.5928 32.2788 36.5931 31.3158 36.3508 30.4009" fill="#085DFF"/>
</g>
</g>
</g>
<defs>
<linearGradient id="paint0_linear_1_2176" x1="29.3748" y1="39.0941" x2="10.7127" y2="7.04047" gradientUnits="userSpaceOnUse">
<stop stop-color="#6E55F2"/>
<stop offset="0.72" stop-color="#6379F8"/>
<stop offset="1" stop-color="#5E88FA"/>
</linearGradient>
<linearGradient id="paint1_linear_1_2176" x1="36.7642" y1="48.5257" x2="47.451" y2="48.5257" gradientUnits="userSpaceOnUse">
<stop stop-color="#00C976"/>
<stop offset="0.02" stop-color="#02C978"/>
<stop offset="1" stop-color="#6BD2D7"/>
</linearGradient>
<linearGradient id="paint2_linear_1_2176" x1="36.7539" y1="59.2924" x2="47.4407" y2="59.2924" gradientUnits="userSpaceOnUse">
<stop stop-color="#00C976"/>
<stop offset="0.02" stop-color="#02C978"/>
<stop offset="1" stop-color="#6BD2D7"/>
</linearGradient>
<linearGradient id="paint3_linear_1_2176" x1="47.4326" y1="59.2847" x2="58.1194" y2="59.2847" gradientUnits="userSpaceOnUse">
<stop stop-color="#00C976"/>
<stop offset="0.02" stop-color="#02C978"/>
<stop offset="1" stop-color="#6BD2D7"/>
</linearGradient>
<linearGradient id="paint4_linear_1_2176" x1="46.9233" y1="55.589" x2="26.5948" y2="20.673" gradientUnits="userSpaceOnUse">
<stop stop-color="#52FFA3"/>
<stop offset="1" stop-color="#3BD3BD"/>
</linearGradient>
</defs>
</svg>
