<svg width="139" height="41" viewBox="0 0 139 41" fill="none" xmlns="http://www.w3.org/2000/svg">
<g id="Group">
<path id="Vector" d="M137.412 36.1586C137.412 38.3291 135.661 40.0844 133.507 40.0844H5.50201C3.34283 40.0844 1.58794 38.3291 1.5835 36.1586V4.84581C1.5835 2.67522 3.33839 0.915527 5.50201 0.915527H133.502C135.661 0.915527 137.412 2.67522 137.412 4.84581V36.163V36.1586Z" fill="white"/>
<path id="Vector_2" d="M133.502 41H5.49768C2.83647 41 0.677294 38.8339 0.672852 36.1586V4.84586C0.672852 2.17059 2.83647 0.00446623 5.49768 0H133.498C136.159 0 138.318 2.17059 138.323 4.84586V36.1631C138.323 38.8339 136.155 41.0045 133.498 41.0045L133.502 41Z" fill="#A6A5A5"/>
<path id="Vector_3" d="M137.412 36.1586C137.412 38.3291 135.661 40.0844 133.507 40.0844H5.50201C3.34283 40.0844 1.58794 38.3291 1.5835 36.1586V4.84581C1.5835 2.67522 3.33839 0.915527 5.50201 0.915527H133.502C135.661 0.915527 137.412 2.67522 137.412 4.84581V36.163V36.1586Z" fill="#010101"/>
<path id="Vector_4" opacity="0.1" d="M133.503 0H64.9419L91.7984 41H133.507C136.168 41 138.327 38.8294 138.332 36.1586V4.84586C138.327 2.17059 136.168 0.00446623 133.507 0H133.503Z" fill="white"/>
<path id="Vector_5" d="M32.3942 20.8707C32.3631 17.6372 35.0288 16.0651 35.1487 15.9936C33.6426 13.7828 31.3057 13.4836 30.4838 13.4568C28.5201 13.2513 26.6186 14.6359 25.619 14.6359C24.6194 14.6359 23.06 13.4747 21.3984 13.5104C19.2614 13.5417 17.2666 14.7877 16.1693 16.7171C13.9079 20.6519 15.5961 26.4312 17.7598 29.6112C18.8438 31.1699 20.11 32.9072 21.7671 32.8447C23.3887 32.7777 23.993 31.8085 25.9522 31.8085C27.9115 31.8085 28.4579 32.8447 30.1506 32.809C31.8922 32.7822 32.9851 31.2458 34.0336 29.6737C35.2865 27.8917 35.7885 26.132 35.8107 26.0426C35.7707 26.0292 32.4342 24.7474 32.3986 20.8752L32.3942 20.8707ZM29.1999 11.3666C30.0707 10.2724 30.6704 8.78065 30.5016 7.2666C29.2399 7.32466 27.6627 8.14198 26.7519 9.21388C25.9478 10.1607 25.228 11.706 25.4146 13.162C26.8319 13.2692 28.2891 12.443 29.1999 11.3621V11.3666Z" fill="white"/>
<path id="Vector_6" d="M55.8785 31.4646H53.6127L52.3732 27.5432H48.0592L46.8775 31.4646H44.6694L48.9434 18.1195H51.5824L55.8785 31.4646ZM51.9955 25.8997L50.8715 22.416C50.7516 22.0587 50.5294 21.2235 50.2007 19.9015H50.1607C50.0274 20.4687 49.8186 21.3084 49.5298 22.416L48.428 25.8997H51.9955ZM66.8521 26.5339C66.8521 28.1685 66.4123 29.4637 65.5237 30.415C64.7329 31.2591 63.7466 31.6834 62.5737 31.6834C61.3076 31.6834 60.3923 31.2279 59.8414 30.3168V35.3636H57.7134V25.0019C57.7134 23.9747 57.6867 22.9207 57.6334 21.8399H59.5038L59.6237 23.3673H59.6637C60.3746 22.2195 61.4497 21.6433 62.8936 21.6433C64.0221 21.6433 64.9639 22.09 65.7192 22.9877C66.4745 23.8854 66.8521 25.0689 66.8521 26.5339ZM64.684 26.6143C64.684 25.6763 64.4752 24.9037 64.0532 24.2963C63.5911 23.6621 62.9736 23.345 62.2006 23.345C61.6763 23.345 61.2009 23.5236 60.7744 23.8675C60.3479 24.2204 60.068 24.6759 59.9392 25.2431C59.8814 25.4575 59.8459 25.6719 59.8414 25.8952V27.4986C59.8414 28.1953 60.0547 28.7893 60.4812 29.2717C60.9077 29.754 61.4631 29.9952 62.1472 29.9952C62.9469 29.9952 63.5734 29.6826 64.0176 29.0662C64.4664 28.4454 64.6885 27.6281 64.6885 26.6098L64.684 26.6143ZM77.8657 26.5339C77.8657 28.1685 77.4259 29.4637 76.5373 30.415C75.7421 31.2591 74.7602 31.6834 73.5829 31.6834C72.3167 31.6834 71.4015 31.2279 70.8506 30.3168V35.3636H68.7225V25.0019C68.7225 23.9747 68.6959 22.9207 68.6425 21.8399H70.5129L70.6329 23.3673H70.6729C71.3793 22.2195 72.4589 21.6433 73.9028 21.6433C75.0312 21.6433 75.9731 22.09 76.7284 22.9877C77.4792 23.8854 77.8613 25.0689 77.8613 26.5339H77.8657ZM75.6976 26.6143C75.6976 25.6763 75.4888 24.9037 75.0668 24.2963C74.6047 23.6621 73.9916 23.345 73.2186 23.345C72.6943 23.345 72.219 23.5236 71.788 23.8675C71.3615 24.2204 71.0816 24.6759 70.9528 25.2431C70.8861 25.5066 70.855 25.7255 70.855 25.8952V27.4986C70.855 28.1953 71.0683 28.7893 71.4948 29.2717C71.9213 29.754 72.4766 29.9952 73.1608 29.9952C73.965 29.9952 74.587 29.6826 75.0312 29.0662C75.48 28.4454 75.7021 27.6281 75.7021 26.6098L75.6976 26.6143ZM90.1766 27.7219C90.1766 28.8563 89.7812 29.7808 88.9948 30.4954C88.1329 31.2725 86.9245 31.6656 85.3784 31.6656C83.9478 31.6656 82.8061 31.3887 81.9397 30.8348L82.4329 29.0528C83.3658 29.6066 84.3921 29.8835 85.5073 29.8835C86.3114 29.8835 86.9334 29.7004 87.3776 29.3387C87.8219 28.9769 88.0485 28.4901 88.0485 27.8827C88.0485 27.3423 87.8619 26.8867 87.4976 26.516C87.1289 26.1453 86.5202 25.8014 85.6672 25.4888C83.3436 24.6179 82.1796 23.345 82.1796 21.6657C82.1796 20.5714 82.5928 19.6737 83.4103 18.9725C84.2322 18.2713 85.3162 17.923 86.6713 17.923C87.8797 17.923 88.8882 18.1329 89.6834 18.5572L89.1503 20.299C88.3995 19.8881 87.5509 19.6871 86.6002 19.6871C85.8493 19.6871 85.2629 19.8747 84.8409 20.2409C84.4854 20.5714 84.3077 20.9734 84.3077 21.4513C84.3077 21.9783 84.5121 22.416 84.9208 22.7599C85.2762 23.077 85.9204 23.4209 86.849 23.7871C87.9907 24.2516 88.8304 24.792 89.3724 25.4084C89.9145 26.0292 90.1855 26.8018 90.1855 27.7219H90.1766ZM97.2272 23.4477H94.8815V28.1194C94.8815 29.3074 95.2946 29.9014 96.121 29.9014C96.5031 29.9014 96.8185 29.8701 97.0673 29.8031L97.1251 31.4289C96.7074 31.5852 96.1521 31.6656 95.4724 31.6656C94.6327 31.6656 93.9752 31.4065 93.4998 30.8929C93.0289 30.3793 92.7889 29.5128 92.7889 28.298V23.4477H91.3939V21.8443H92.7889V20.0846L94.877 19.4504V21.8443H97.2228V23.4522L97.2272 23.4477ZM107.788 26.5741C107.788 28.0524 107.366 29.2672 106.526 30.2185C105.646 31.1966 104.478 31.6834 103.021 31.6834C101.563 31.6834 100.497 31.2145 99.6619 30.281C98.8266 29.3431 98.409 28.164 98.409 26.7393C98.409 25.3146 98.84 24.0283 99.6974 23.077C100.559 22.1257 101.719 21.6523 103.176 21.6523C104.633 21.6523 105.708 22.1212 106.561 23.0591C107.379 23.9658 107.783 25.1404 107.783 26.583L107.788 26.5741ZM105.584 26.6232C105.584 25.7433 105.393 24.9841 105.015 24.3543C104.571 23.5906 103.931 23.2065 103.105 23.2065C102.279 23.2065 101.599 23.5906 101.155 24.3543C100.773 24.9885 100.586 25.7567 100.586 26.6634C100.586 27.57 100.777 28.3025 101.155 28.9367C101.617 29.7004 102.256 30.0845 103.087 30.0845C103.918 30.0845 104.54 29.696 104.998 28.9188C105.389 28.2712 105.584 27.512 105.584 26.6277V26.6232ZM114.705 23.7201C114.483 23.6799 114.261 23.6621 114.034 23.6621C113.288 23.6621 112.706 23.9435 112.302 24.5151C111.946 25.0153 111.773 25.6496 111.773 26.4133V31.4601H109.645V24.868C109.645 23.8586 109.627 22.8492 109.583 21.8399H111.435L111.515 23.6799H111.573C111.799 23.0457 112.15 22.5366 112.635 22.1525C113.079 21.8175 113.617 21.6389 114.172 21.6389C114.367 21.6389 114.545 21.6523 114.705 21.6791V23.7201ZM124.217 26.1944C124.221 26.5205 124.195 26.842 124.137 27.1636H117.757C117.779 28.1149 118.09 28.8429 118.681 29.3431C119.219 29.7897 119.916 30.0131 120.769 30.0131C121.716 30.0131 122.578 29.8612 123.351 29.5575L123.684 31.0403C122.778 31.4378 121.707 31.6343 120.476 31.6343C118.992 31.6343 117.828 31.1966 116.98 30.3168C116.136 29.4414 115.709 28.2623 115.709 26.784C115.709 25.3057 116.105 24.1266 116.891 23.1619C117.717 22.1346 118.832 21.6165 120.236 21.6165C121.64 21.6165 122.662 22.1302 123.368 23.1619C123.928 23.9792 124.213 24.9885 124.213 26.19L124.217 26.1944ZM122.187 25.6406C122.2 25.0064 122.062 24.4615 121.773 23.997C121.405 23.403 120.84 23.1038 120.081 23.1038C119.383 23.1038 118.819 23.3941 118.388 23.9747C118.033 24.4392 117.824 24.993 117.757 25.6362H122.187V25.6406Z" fill="white"/>
<path id="Vector_7" d="M47.4419 14.5599C46.851 14.5599 46.3401 14.5287 45.9136 14.4796V8.02585C46.5089 7.93206 47.1131 7.8874 47.7129 7.8874C50.152 7.8874 51.276 9.09328 51.276 11.0584C51.276 13.3273 49.9476 14.551 47.4419 14.551V14.5599ZM47.7973 8.72259C47.4685 8.72259 47.1886 8.74045 46.9532 8.78958V13.6935C47.0776 13.7114 47.3219 13.7248 47.6596 13.7248C49.259 13.7248 50.1697 12.8092 50.1697 11.0986C50.1697 9.57117 49.3478 8.72259 47.7973 8.72259ZM54.7769 14.6091C53.4041 14.6091 52.5111 13.5774 52.5111 12.175C52.5111 10.7726 53.4218 9.67389 54.8568 9.67389C56.2119 9.67389 57.1227 10.6565 57.1227 12.0991C57.1227 13.5416 56.1852 14.6091 54.7769 14.6091ZM54.8169 10.4421C54.0616 10.4421 53.5773 11.1522 53.5773 12.1437C53.5773 13.1352 54.0705 13.8275 54.808 13.8275C55.5455 13.8275 56.0386 13.0682 56.0386 12.1259C56.0386 11.1835 55.5544 10.4421 54.8213 10.4421H54.8169ZM64.9597 9.77215L63.4891 14.5019H62.5295L61.9208 12.4474C61.7698 11.9472 61.6409 11.4336 61.5432 10.92H61.5254C61.4499 11.4336 61.3033 11.9517 61.1478 12.4474L60.4991 14.5019H59.5306L58.1445 9.77215H59.2196L59.7528 12.0187C59.8772 12.5546 59.9838 13.0593 60.0726 13.5372H60.0904C60.1659 13.1397 60.2948 12.6395 60.4769 12.0276L61.1433 9.77215H61.9964L62.6361 11.9829C62.7916 12.5189 62.916 13.0459 63.0137 13.5416H63.0404C63.107 13.0548 63.2137 12.5367 63.3603 11.9829L63.9334 9.77215H64.9597ZM70.3754 14.5019H69.3313V11.7864C69.3313 10.9512 69.0115 10.5314 68.3806 10.5314C67.7497 10.5314 67.3366 11.0674 67.3366 11.6882V14.5019H66.2925V11.1254C66.2925 10.7056 66.2836 10.259 66.2525 9.77215H67.1722L67.221 10.5001H67.2521C67.532 9.99546 68.1051 9.67389 68.7449 9.67389C69.7312 9.67389 70.3798 10.4332 70.3798 11.6703V14.5019H70.3754ZM73.2587 14.5019H72.2103V7.60156H73.2587V14.5019ZM77.0706 14.6091C75.6978 14.6091 74.8048 13.5774 74.8048 12.175C74.8048 10.7726 75.7156 9.67389 77.1462 9.67389C78.5012 9.67389 79.412 10.6565 79.412 12.0991C79.412 13.5774 78.4745 14.6091 77.0706 14.6091ZM77.1106 10.4421C76.3553 10.4421 75.8711 11.1522 75.8711 12.1437C75.8711 13.1352 76.3642 13.8275 77.0973 13.8275C77.8303 13.8275 78.3279 13.0682 78.3279 12.1259C78.3279 11.1611 77.8481 10.4421 77.1106 10.4421ZM83.5393 14.5019L83.4638 13.957H83.4371C83.1172 14.3947 82.6507 14.6091 82.0599 14.6091C81.2157 14.6091 80.616 14.0151 80.616 13.2156C80.616 12.0499 81.6245 11.4425 83.366 11.4425V11.3532C83.366 10.7324 83.0373 10.4198 82.3886 10.4198C81.9266 10.4198 81.5178 10.5359 81.158 10.7726L80.9447 10.0803C81.3801 9.80788 81.9221 9.66943 82.5619 9.66943C83.7925 9.66943 84.4101 10.3215 84.4101 11.6256V13.3675C84.4101 13.8454 84.4323 14.216 84.4767 14.4974H83.5349L83.5393 14.5019ZM83.3971 12.1482C82.2376 12.1482 81.6511 12.4296 81.6511 13.104C81.6511 13.5997 81.9532 13.8409 82.3664 13.8409C82.8995 13.8409 83.3927 13.4345 83.3927 12.8762V12.1482H83.3971ZM89.4926 14.5019L89.4437 13.7426H89.4126C89.1105 14.3143 88.6085 14.6091 87.9021 14.6091C86.7692 14.6091 85.9295 13.6042 85.9295 12.1973C85.9295 10.7905 86.8003 9.67836 87.9909 9.67836C88.6218 9.67836 89.0661 9.89274 89.3193 10.3215H89.3415V7.60603H90.39V13.229C90.39 13.6846 90.3989 14.1133 90.43 14.5019H89.497H89.4926ZM89.3371 11.7194C89.3371 11.0584 88.9017 10.4912 88.2353 10.4912C87.4578 10.4912 86.9869 11.1835 86.9869 12.1527C86.9869 13.1218 87.48 13.7605 88.2131 13.7605C88.8706 13.7605 89.3371 13.1844 89.3371 12.5055V11.7194ZM97.0186 14.6091C95.6458 14.6091 94.7528 13.5774 94.7528 12.175C94.7528 10.7726 95.6636 9.67389 97.0941 9.67389C98.4492 9.67389 99.36 10.6565 99.36 12.0991C99.36 13.5774 98.4225 14.6091 97.0142 14.6091H97.0186ZM97.0586 10.4421C96.3033 10.4421 95.8191 11.1522 95.8191 12.1437C95.8191 13.1352 96.3122 13.8275 97.0453 13.8275C97.7783 13.8275 98.2759 13.0682 98.2759 12.1259C98.2759 11.1611 97.7961 10.4421 97.0586 10.4421ZM104.989 14.5019H103.94V11.7864C103.94 10.9512 103.621 10.5314 102.99 10.5314C102.359 10.5314 101.946 11.0674 101.946 11.6882V14.5019H100.897V11.1254C100.897 10.7056 100.888 10.259 100.857 9.77215H101.777L101.826 10.5001H101.857C102.137 9.99546 102.71 9.67389 103.35 9.67389C104.336 9.67389 104.989 10.4332 104.989 11.6703V14.5019ZM112.026 10.5627H110.876V12.8583C110.876 13.4434 111.075 13.7337 111.484 13.7337C111.671 13.7337 111.822 13.7158 111.946 13.6846L111.977 14.484C111.773 14.5644 111.502 14.6001 111.164 14.6001C110.338 14.6001 109.849 14.1446 109.849 12.9476V10.5627H109.161V9.77662H109.849V8.91017L110.876 8.59753V9.77662H112.026V10.5671V10.5627ZM117.562 14.5019H116.518V11.8043C116.518 10.9602 116.198 10.5314 115.567 10.5314C115.025 10.5314 114.519 10.9021 114.519 11.6524V14.5019H113.475V7.60156H114.519V10.4421H114.541C114.87 9.92847 115.345 9.67389 115.954 9.67389C116.949 9.67389 117.557 10.451 117.557 11.6882V14.5019H117.562ZM123.235 12.3894H120.099C120.117 13.2871 120.707 13.7918 121.583 13.7918C122.045 13.7918 122.476 13.7114 122.849 13.5684L123.013 14.2964C122.569 14.493 122.045 14.5867 121.436 14.5867C119.965 14.5867 119.095 13.6533 119.095 12.2018C119.095 10.7503 119.988 9.66049 121.321 9.66049C122.524 9.66049 123.275 10.5582 123.275 11.907C123.284 12.0678 123.271 12.2286 123.24 12.3849L123.235 12.3894ZM122.276 11.639C122.276 10.911 121.911 10.393 121.241 10.393C120.641 10.393 120.165 10.92 120.099 11.639H122.276Z" fill="white"/>
</g>
</svg>
