<svg width="138" height="41" viewBox="0 0 138 41" fill="none" xmlns="http://www.w3.org/2000/svg">
<g id="Group">
<path id="Vector" d="M137.089 36.1586C137.089 38.3291 135.339 40.0844 133.184 40.0844H5.17923C3.02005 40.0844 1.26518 38.3291 1.26074 36.1586V4.84581C1.26074 2.67522 3.01561 0.915527 5.17923 0.915527H133.18C135.339 0.915527 137.089 2.67522 137.089 4.84581V36.163V36.1586Z" fill="white"/>
<path id="Vector_2" d="M133.175 41H5.17053C2.50932 41 0.350146 38.8339 0.345703 36.1586V4.84586C0.345703 2.17059 2.50932 0.00446623 5.17053 0H133.171C135.832 0 137.991 2.17059 137.996 4.84586V36.1631C137.996 38.8339 135.828 41.0045 133.171 41.0045L133.175 41Z" fill="#A6A5A5"/>
<path id="Vector_3" d="M137.089 36.1586C137.089 38.3291 135.339 40.0844 133.184 40.0844H5.17923C3.02005 40.0844 1.26518 38.3291 1.26074 36.1586V4.84581C1.26074 2.67522 3.01561 0.915527 5.17923 0.915527H133.18C135.339 0.915527 137.089 2.67522 137.089 4.84581V36.163V36.1586Z" fill="#010101"/>
<path id="Vector_4" opacity="0.1" d="M133.175 0H64.6147L91.4712 41H133.18C135.841 41 138 38.8294 138.005 36.1586V4.84586C138 2.17059 135.841 0.00446623 133.18 0H133.175Z" fill="white"/>
<g id="Group_2">
<path id="Vector_5" d="M40.7081 12.8226L39.9572 15.1093H38.9932L41.45 7.83826H42.5785L45.0486 15.1093H44.049L43.276 12.8226H40.7125H40.7081ZM43.0805 12.0901L42.3741 9.99545C42.2142 9.52203 42.1075 9.0888 42.0009 8.66898H41.9787C41.8721 9.1022 41.7521 9.54436 41.6144 9.98651L40.908 12.0901H43.0849H43.0805Z" fill="white"/>
<path id="Vector_6" d="M46.2127 9.88831L47.2301 12.8226C47.4033 13.296 47.541 13.7293 47.6477 14.158H47.6788C47.7987 13.7248 47.9453 13.296 48.1186 12.8226L49.1271 9.88831H50.1134L48.0742 15.1093H47.1723L45.1997 9.88831H46.2082H46.2127Z" fill="white"/>
<path id="Vector_7" d="M53.8452 15.1093L53.7697 14.4528H53.7386C53.4498 14.8637 52.89 15.2299 52.1481 15.2299C51.0951 15.2299 50.562 14.484 50.562 13.7292C50.562 12.4653 51.6772 11.7775 53.6853 11.7864V11.6792C53.6853 11.246 53.5653 10.4689 52.5035 10.4689C52.0192 10.4689 51.5172 10.6207 51.1529 10.8575L50.9396 10.2322C51.3706 9.95082 51.9926 9.7677 52.6457 9.7677C54.2317 9.7677 54.6183 10.8575 54.6183 11.9026V13.8543C54.6183 14.3054 54.6405 14.7475 54.7027 15.1048H53.8452V15.1093ZM53.7075 12.443C52.6768 12.4206 51.5083 12.6038 51.5083 13.6176C51.5083 14.2339 51.9171 14.5242 52.3969 14.5242C53.0722 14.5242 53.5031 14.091 53.6542 13.6489C53.6853 13.5506 53.7075 13.4434 53.7075 13.3452V12.4385V12.443Z" fill="white"/>
<path id="Vector_8" d="M57.1953 8.42335C57.2042 8.74492 56.9687 9.00396 56.5955 9.00396C56.2623 9.00396 56.0269 8.74492 56.0269 8.42335C56.0269 8.10179 56.2757 7.82935 56.6177 7.82935C56.9598 7.82935 57.1953 8.08839 57.1953 8.42335ZM56.1424 15.1138V9.89274H57.0887V15.1138H56.1424Z" fill="white"/>
<path id="Vector_9" d="M58.6523 7.44971H59.5987V15.1093H58.6523V7.44971Z" fill="white"/>
<path id="Vector_10" d="M64.0635 15.1093L63.988 14.4528H63.9569C63.6681 14.8637 63.1083 15.2299 62.3663 15.2299C61.3134 15.2299 60.7803 14.484 60.7803 13.7292C60.7803 12.4653 61.8954 11.7775 63.9035 11.7864V11.6792C63.9035 11.246 63.7836 10.4689 62.7218 10.4689C62.2375 10.4689 61.7355 10.6207 61.3712 10.8575L61.1579 10.2322C61.5888 9.95082 62.2108 9.7677 62.8639 9.7677C64.45 9.7677 64.8365 10.8575 64.8365 11.9026V13.8543C64.8365 14.3054 64.8587 14.7475 64.9209 15.1048H64.0635V15.1093ZM63.9258 12.443C62.895 12.4206 61.7266 12.6038 61.7266 13.6176C61.7266 14.2339 62.1353 14.5242 62.6151 14.5242C63.2904 14.5242 63.7214 14.091 63.8724 13.6489C63.9035 13.5506 63.9258 13.4434 63.9258 13.3452V12.4385V12.443Z" fill="white"/>
<path id="Vector_11" d="M66.3159 15.1093C66.3381 14.752 66.3603 14.225 66.3603 13.7605V7.44971H67.2933V10.7279H67.3155C67.6487 10.1473 68.2485 9.76768 69.0882 9.76768C70.3766 9.76768 71.2874 10.8485 71.2785 12.434C71.2785 14.3009 70.11 15.2299 68.9505 15.2299C68.1996 15.2299 67.5999 14.9396 67.2133 14.2473H67.1822L67.1378 15.1093H66.3204H66.3159ZM67.2933 13.0146C67.2933 13.1352 67.3155 13.2513 67.3377 13.3585C67.5199 14.0151 68.0664 14.4706 68.755 14.4706C69.7413 14.4706 70.3322 13.6622 70.3322 12.4653C70.3322 11.4202 69.7946 10.5225 68.7861 10.5225C68.1419 10.5225 67.5421 10.9646 67.3466 11.6882C67.3244 11.7953 67.2933 11.9249 67.2933 12.0767V13.0146Z" fill="white"/>
<path id="Vector_12" d="M72.4692 7.44971H73.4155V15.1093H72.4692V7.44971Z" fill="white"/>
<path id="Vector_13" d="M75.5259 12.6707C75.5481 13.9525 76.3612 14.484 77.3075 14.484C77.9828 14.484 78.3915 14.3634 78.7469 14.216L78.9068 14.8949C78.5736 15.0467 78.005 15.2164 77.1786 15.2164C75.5792 15.2164 74.624 14.1579 74.624 12.5858C74.624 11.0137 75.5481 9.77209 77.0587 9.77209C78.7558 9.77209 79.2045 11.2727 79.2045 12.233C79.2045 12.4295 79.1823 12.5769 79.1734 12.6751H75.5259V12.6707ZM78.2937 11.9918C78.3026 11.3889 78.0494 10.451 76.9832 10.451C76.028 10.451 75.6103 11.3353 75.5348 11.9918H78.2937Z" fill="white"/>
<path id="Vector_14" d="M87.3568 12.4563C87.3568 14.3857 86.024 15.2298 84.7711 15.2298C83.3672 15.2298 82.2832 14.1937 82.2832 12.5456C82.2832 10.7993 83.4205 9.77209 84.86 9.77209C86.2995 9.77209 87.3613 10.8619 87.3613 12.4563H87.3568ZM83.2339 12.5099C83.2339 13.6532 83.887 14.5152 84.8111 14.5152C85.7352 14.5152 86.3883 13.6622 86.3883 12.4876C86.3883 11.6032 85.9485 10.4822 84.8333 10.4822C83.7182 10.4822 83.2339 11.5184 83.2339 12.5099Z" fill="white"/>
<path id="Vector_15" d="M88.5478 11.304C88.5478 10.7636 88.539 10.3214 88.5034 9.89268H89.3387L89.392 10.7547H89.4142C89.6719 10.2589 90.2716 9.77209 91.1291 9.77209C91.8488 9.77209 92.9639 10.2053 92.9639 11.9963V15.1137H92.0176V12.1035C92.0176 11.2638 91.7066 10.5626 90.8136 10.5626C90.1916 10.5626 89.7074 11.0048 89.5475 11.5318C89.503 11.6524 89.4853 11.8132 89.4853 11.9739V15.1137H88.5389V11.304H88.5478Z" fill="white"/>
</g>
<path id="Vector_16" d="M60.2652 23.5504C59.2345 23.5504 58.4481 24.0239 57.9017 24.9752H57.875V23.7246H56.2179V31.2547H57.875V26.9626C57.875 26.3686 58.0394 25.8774 58.3682 25.4888C58.6969 25.1002 59.1012 24.7831 59.6032 24.7831C60.5673 24.7831 61.3226 25.1806 61.2915 27.0118V31.2547H62.7087V26.6545C62.7087 25.6496 62.4999 24.8814 62.0823 24.3499C61.6647 23.8184 61.0605 23.5504 60.2652 23.5504ZM76.1081 23.5504C74.8908 23.5504 73.9178 23.9077 73.2025 24.6179C72.4828 25.328 72.1229 26.315 72.1229 27.579C72.1229 28.7402 72.4695 29.6737 73.1581 30.3749C73.8467 31.076 74.7708 31.4289 75.9259 31.4289C77.0811 31.4289 78.0629 31.0671 78.7648 30.3436C79.4712 29.6201 79.8222 28.6598 79.8222 27.4584C79.8222 26.257 79.4935 25.2744 78.8404 24.5821C78.1873 23.8899 77.2765 23.546 76.1036 23.546L76.1081 23.5504ZM77.5431 29.4101C77.1832 29.8568 76.6723 30.0801 76.0059 30.0801C75.3395 30.0801 74.833 29.8523 74.4421 29.4012C74.0511 28.9501 73.8556 28.3248 73.8556 27.5388C73.8556 26.7527 74.0466 26.0783 74.4332 25.6138C74.8197 25.1494 75.3439 24.9171 76.0059 24.9171C76.6679 24.9171 77.1877 25.1404 77.5431 25.5915C77.903 26.0426 78.0807 26.6813 78.0807 27.512C78.0807 28.3427 77.903 28.968 77.5431 29.4146V29.4101ZM69.4751 24.475H69.444C68.9863 23.6621 68.2533 23.5504 67.2448 23.5504C66.2363 23.5504 65.4099 23.9256 64.7968 24.6759C64.1837 25.4263 63.8772 26.4222 63.8772 27.6683C63.8772 28.8295 64.1526 29.7496 64.708 30.4195C65.2633 31.0939 66.0008 31.4289 66.9205 31.4289C68.0578 31.4289 68.8975 31.1341 69.444 30.1649H69.4751V31.2547H71.1722V20.1115H69.4751V24.4794V24.475ZM69.4973 27.8246C69.4973 28.499 69.3107 29.0618 68.9375 29.5084C68.5643 29.955 68.0756 30.1783 67.4714 30.1783C66.8672 30.1783 66.3696 29.9506 66.0097 29.4861C65.6498 29.026 65.4677 28.3963 65.4677 27.6058C65.4677 26.7304 65.6543 26.0471 66.0319 25.5513C66.4096 25.06 66.9249 24.8099 67.5824 24.8099C68.1378 24.8099 68.5954 25.002 68.9553 25.3905C69.3151 25.7791 69.4928 26.2481 69.4928 26.8019V27.8246H69.4973ZM87.8458 29.1734C87.7836 29.4235 87.7481 29.6379 87.7392 29.821H87.6904C87.6726 29.562 87.6415 29.3476 87.597 29.1734L86.2598 23.7246H84.6782L83.1765 29.1377C83.1143 29.3744 83.0743 29.5933 83.061 29.7987H83.0121C82.9988 29.5307 82.9677 29.3119 82.9233 29.1511L81.5727 23.7246H79.8311L82.0169 31.2547H83.7452L85.2113 26.1364C85.2868 25.8729 85.3313 25.654 85.3401 25.4888H85.3712C85.3846 25.7344 85.4201 25.9533 85.4734 26.1498L86.824 31.2502H88.5878L90.7781 23.7202H89.1742L87.8547 29.169L87.8458 29.1734ZM53.0502 31.2547H54.7473V23.7246H53.0502V31.2547ZM48.8962 28.4588C48.7985 28.8608 48.7451 29.1824 48.7318 29.428H48.7007C48.6652 29.0662 48.6163 28.7536 48.5497 28.4856L46.5904 20.7055H44.8266L42.7074 28.4231C42.5919 28.8474 42.5253 29.1868 42.5075 29.4369H42.472C42.4542 29.0841 42.4053 28.7447 42.3298 28.4231L40.455 20.7055H38.5757L41.4635 31.2458H43.4449L45.4175 23.8586C45.5108 23.5281 45.5686 23.1887 45.5908 22.8448H45.6174C45.6352 23.2155 45.6885 23.5594 45.7685 23.872L47.7366 31.2458H49.6737L52.5037 20.7055H50.7311L48.8962 28.4544V28.4588ZM95.3408 27.7576C95.1764 27.5835 94.972 27.4271 94.7366 27.2887C94.4789 27.1413 94.2123 27.0028 93.9369 26.8867C93.7103 26.8019 93.5148 26.7259 93.3415 26.6545C93.1683 26.583 93.0217 26.5071 92.8973 26.4178C92.7729 26.3329 92.6796 26.2347 92.6174 26.1185C92.5552 26.0069 92.5241 25.8684 92.5241 25.7076C92.5241 25.5781 92.5552 25.4531 92.6174 25.3414C92.684 25.2298 92.7729 25.1315 92.8795 25.06C92.9906 24.9796 93.1283 24.9216 93.2882 24.8769C93.4482 24.8323 93.6259 24.8099 93.8258 24.8099C94.4567 24.8099 95.012 24.993 95.4963 25.3548V23.8631C94.9943 23.6532 94.4211 23.546 93.7858 23.546C93.4259 23.546 93.0794 23.5951 92.7418 23.6889C92.4041 23.7827 92.1064 23.9256 91.8399 24.1132C91.5822 24.2963 91.3645 24.533 91.2046 24.8099C91.0491 25.0868 90.9691 25.4084 90.9691 25.7702C90.9691 26.0649 91.0047 26.3195 91.0846 26.5428C91.1602 26.7617 91.2757 26.9626 91.4267 27.1324C91.5778 27.3065 91.7644 27.4629 91.9909 27.6013C92.2353 27.7487 92.493 27.8782 92.7551 27.9899C92.9639 28.0747 93.1683 28.1596 93.3771 28.24C93.5637 28.3115 93.7236 28.3963 93.8614 28.4901C93.9991 28.5839 94.1057 28.6911 94.1901 28.8117C94.2701 28.9323 94.3101 29.0796 94.3101 29.2494C94.3101 29.8568 93.8391 30.1605 92.8973 30.1605C92.1909 30.1605 91.5467 29.9193 90.9647 29.4325V31.0135C91.5156 31.286 92.1686 31.4244 92.9239 31.4244C93.3149 31.4244 93.6881 31.3798 94.039 31.2904C94.39 31.2011 94.701 31.0626 94.972 30.8751C95.2386 30.692 95.4607 30.4508 95.6207 30.1694C95.7806 29.8836 95.865 29.5531 95.865 29.169C95.865 28.8563 95.8206 28.5839 95.7317 28.3561C95.6429 28.1283 95.514 27.9274 95.3497 27.7532L95.3408 27.7576ZM53.9476 20.308C53.3834 20.308 52.9258 20.7323 52.9258 21.2548C52.9258 21.7774 53.3834 22.2016 53.9476 22.2016C54.5118 22.2016 54.9694 21.7774 54.9694 21.2548C54.9694 20.7323 54.5118 20.308 53.9476 20.308ZM122.935 23.6532C122.504 23.6532 122.086 23.7961 121.74 24.0551C121.362 24.3499 121.087 24.7474 120.913 25.2387H120.869L120.807 23.8095H119.367C119.403 24.5955 119.416 25.3771 119.416 26.1632V31.286H121.069V27.3601C121.069 26.7661 121.207 26.2748 121.482 25.8818C121.797 25.4397 122.246 25.2208 122.828 25.2208C123.001 25.2208 123.179 25.2342 123.348 25.2655V23.68C123.224 23.6621 123.086 23.6487 122.935 23.6487V23.6532ZM108.9 21.9426L107.278 22.4339V23.805H106.194V25.0511H107.278V28.8206C107.278 29.763 107.465 30.4374 107.829 30.8349C108.198 31.2368 108.709 31.4378 109.362 31.4378C109.895 31.4378 110.322 31.3753 110.646 31.2547L110.602 29.9952C110.406 30.0488 110.162 30.0711 109.869 30.0711C109.224 30.0711 108.905 29.6111 108.905 28.6866V25.0556H110.726V23.805H108.905V21.9426H108.9ZM114.938 23.6576C113.805 23.6576 112.903 24.0283 112.237 24.7653C111.57 25.5022 111.233 26.4535 111.233 27.6103C111.233 28.767 111.557 29.6335 112.205 30.3659C112.854 31.0939 113.725 31.4557 114.818 31.4557C115.911 31.4557 116.862 31.076 117.541 30.3168C118.194 29.5799 118.523 28.633 118.523 27.4852C118.523 26.3374 118.208 25.4531 117.572 24.7474C116.91 24.0194 116.031 23.6532 114.938 23.6532V23.6576ZM116.351 29.3074C115.991 29.9104 115.498 30.2141 114.867 30.2141C114.236 30.2141 113.72 29.9193 113.365 29.3253C113.067 28.834 112.921 28.2445 112.921 27.5611C112.921 26.8778 113.067 26.257 113.365 25.7657C113.712 25.1717 114.218 24.8769 114.88 24.8769C115.542 24.8769 116.017 25.1717 116.364 25.7657C116.657 26.257 116.808 26.8465 116.808 27.5299C116.808 28.2132 116.657 28.8072 116.351 29.3119V29.3074ZM130.336 27.1949C130.336 26.2615 130.119 25.4754 129.679 24.8412C129.128 24.0417 128.315 23.6398 127.244 23.6398C126.174 23.6398 125.285 24.0417 124.641 24.8412C124.028 25.5915 123.721 26.5294 123.721 27.6549C123.721 28.7804 124.05 29.7183 124.707 30.4016C125.365 31.085 126.271 31.4244 127.426 31.4244C128.386 31.4244 129.217 31.2726 129.919 30.9644L129.661 29.8121C129.057 30.0488 128.39 30.1649 127.653 30.1649C126.991 30.1649 126.449 29.9908 126.031 29.6424C125.569 29.2538 125.329 28.6866 125.312 27.9497H130.27C130.314 27.6996 130.336 27.4495 130.332 27.1949H130.336ZM125.316 26.7617C125.365 26.2614 125.529 25.8282 125.805 25.4709C126.138 25.0198 126.582 24.7921 127.12 24.7921C127.711 24.7921 128.151 25.0243 128.435 25.4843C128.657 25.8416 128.768 26.2704 128.755 26.7617H125.312H125.316ZM103.467 25.3191C102.742 25.0332 102.24 24.7653 101.965 24.5196C101.65 24.2516 101.49 23.9122 101.49 23.5058C101.49 23.1351 101.627 22.8225 101.903 22.5679C102.231 22.282 102.689 22.1391 103.271 22.1391C104.009 22.1391 104.671 22.2999 105.253 22.617L105.666 21.2637C105.044 20.9377 104.262 20.7725 103.324 20.7725C102.271 20.7725 101.427 21.0449 100.792 21.5898C100.157 22.1347 99.8368 22.8314 99.8368 23.68C99.8368 24.9841 100.743 25.9756 102.547 26.65C103.213 26.8957 103.684 27.1636 103.969 27.4495C104.253 27.7353 104.4 28.0881 104.4 28.5124C104.4 28.9814 104.226 29.361 103.88 29.6424C103.533 29.9238 103.049 30.0667 102.427 30.0667C101.561 30.0667 100.765 29.8523 100.037 29.4191L99.6547 30.8036C100.326 31.2324 101.219 31.4512 102.325 31.4512C103.529 31.4512 104.466 31.1475 105.137 30.5446C105.746 29.9908 106.052 29.2717 106.052 28.3918C106.052 27.6772 105.843 27.0743 105.421 26.592C105.004 26.1096 104.351 25.6898 103.462 25.3325L103.467 25.3191Z" fill="white"/>
<g id="g18086">
<g id="bag">
<g id="handles">
<path id="path205" d="M22.3284 9.91943C21.2488 10.2991 20.458 10.6251 20.458 12.6796V13.6755L21.1022 13.5594V12.7064C21.0711 11.2995 21.4532 11.0047 22.3862 10.5938C22.3862 10.3303 22.3862 10.0936 22.3284 9.91943Z" fill="white"/>
<path id="path207" d="M24.1948 9.48178C24.2259 9.68723 24.2837 9.89268 24.2837 10.1294C25.9763 9.89268 25.9497 10.5983 25.9497 12.0365V12.5635L26.5939 12.4474V12.0365C26.5939 9.77655 26.2429 9.16021 24.1992 9.48178H24.1948Z" fill="white"/>
<path id="path209" d="M17.5704 14.2651V11.2727C17.5393 9.42371 18.5034 8.86543 20.2539 8.45454C22.8795 7.8382 23.0572 9.53984 23.0572 10.6251V13.1486L23.7014 13.0324V10.6832C23.7014 8.62872 23.0572 7.07448 20.1117 7.74888C18.5345 8.10171 16.9307 8.5126 16.9307 11.2102V14.3812L17.5749 14.2651H17.5704Z" fill="white"/>
</g>
<path id="path211" d="M29.8279 12.5902L12.0791 16.1721V29.1421L29.8279 32.724L33.3599 31.4332V13.9122L29.8279 12.5902ZM19.845 26.44L15.9043 25.8817V22.5946H19.845V26.44ZM19.845 22.0988H15.9043V19.0752L19.845 18.5169V22.0988ZM25.3052 27.2037L20.3426 26.4713V22.599H25.3052V27.2082V27.2037ZM25.3052 22.0988H20.3426V18.4901L25.3052 17.7576V22.0988Z" fill="white"/>
</g>
</g>
</g>
</svg>
